<svg width="23" height="22" viewBox="0 0 23 22" fill="none" xmlns="http://www.w3.org/2000/svg">
<path d="M5.56108 21.0922C5.74768 21.106 5.93439 21.0671 6.1 20.98L11.52 18.13L16.92 20.98C17.0859 21.0699 17.2738 21.111 17.4621 21.0987C17.6504 21.0863 17.8313 21.0209 17.984 20.91C18.1367 20.7992 18.2549 20.6474 18.325 20.4722C18.395 20.297 18.4141 20.1056 18.38 19.92L17.34 13.89L21.72 9.62001C21.8519 9.48982 21.945 9.32556 21.989 9.14553C22.0329 8.96551 22.026 8.77681 21.969 8.60049C21.9119 8.42417 21.807 8.26718 21.6659 8.14702C21.5248 8.02686 21.3531 7.94826 21.17 7.92001L15.11 7.04001L12.41 1.56001C12.3281 1.39093 12.2003 1.24835 12.0411 1.14858C11.8819 1.04881 11.6979 0.995895 11.51 0.995895C11.3221 0.995895 11.1381 1.04881 10.9789 1.14858C10.8197 1.24835 10.6919 1.39093 10.61 1.56001L7.91 7.04001L1.86 7.92001C1.67398 7.94532 1.49885 8.02249 1.35464 8.14269C1.21043 8.26288 1.10296 8.42124 1.04453 8.59965C0.986106 8.77806 0.97908 8.96931 1.02426 9.15152C1.06944 9.33374 1.165 9.49956 1.3 9.63001L5.68 13.89L4.65 19.92C4.61727 20.1042 4.63689 20.2939 4.70661 20.4676C4.77634 20.6412 4.89338 20.7918 5.04443 20.9022C5.19548 21.0126 5.37448 21.0785 5.56108 21.0922Z" fill="#F2C94C"/>
</svg>
